# File created by Blade
# Date/Time:  Wed Jan 21 17:05:57 2015
# Frame Rate: 120.000 fps
#------------------------------------------------------
:FULLY-SPECIFIED
:DEGREES
345
root 19.068615 8.668295 -13.494646 -180.908943 3.569388 -178.584730
Spine 79.754396 3.444148 1.347081
Head -11.983881 -0.248168 2.442619
LeftShoulder 23.579899 -63.842498 22.694145
LeftArm 51.974825 8.763683 -11.272821
LeftForeArm 0.878387 -0.000000 -0.849280
LeftHand -5.620852 -0.000000 17.778493
LeftHandThumb1 -26.253704 0.000000 33.147579
RightShoulder 10.851383 28.047982 -36.270022
RightArm 51.399546 34.702318 18.898265
RightForeArm -25.495047 -0.000000 10.090734
RightHand -10.205560 0.000000 -13.352784
RightHandThumb1 -24.326973 -0.000000 -32.862282
LeftUpLeg -121.718566 28.795101 -9.101839
LeftLeg 149.039935 -0.000000 -0.000000
LeftFoot -47.590176 19.218938 -11.632671
LeftToeBase 24.861667 -0.000000 -0.000000
RightUpLeg -118.986923 -20.331944 7.061777
RightLeg 146.001141 -0.000000 -0.000000
RightFoot -46.979970 -23.953803 14.943862
RightToeBase 24.690145 -0.000000 -0.000000
346
root 19.059399 8.638845 -13.501002 -180.894059 3.553339 -178.589403
Spine 79.659710 3.432127 1.380048
Head -11.909514 -0.300338 2.394773
LeftShoulder 23.690177 -63.890221 22.565592
LeftArm 51.995385 8.817293 -11.473917
LeftForeArm 1.048875 -0.000000 -0.933963
LeftHand -5.689699 -0.000000 17.805059
LeftHandThumb1 -26.253704 0.000000 33.147579
RightShoulder 10.862528 27.844020 -36.224247
RightArm 51.244915 34.578149 18.524489
RightForeArm -25.145713 -0.000000 10.159631
RightHand -10.261633 0.000000 -13.351039
RightHandThumb1 -24.326973 -0.000000 -32.862282
LeftUpLeg -121.825529 28.690902 -9.100975
LeftLeg 149.122987 -0.000000 -0.000000
LeftFoot -47.619126 19.319368 -11.627837
LeftToeBase 24.895655 -0.000000 -0.000000
RightUpLeg -119.098446 -20.336557 6.987143
RightLeg 146.071365 -0.000000 -0.000000
RightFoot -46.957355 -23.999708 14.891392
RightToeBase 24.844111 -0.000000 -0.000000
347
root 19.057024 8.627859 -13.506554 -180.923463 3.590173 -178.580872
Spine 79.684558 3.478855 1.405617
Head -11.918522 -0.302968 2.346442
LeftShoulder 23.833614 -64.025738 22.423283
LeftArm 51.935693 8.950462 -11.565702
LeftForeArm 1.091243 -0.000000 -0.934429
LeftHand -5.576545 -0.000000 17.675895
LeftHandThumb1 -26.253704 0.000000 33.147579
RightShoulder 10.865912 27.953549 -36.251155
RightArm 51.342109 34.619456 18.852070
RightForeArm -25.470068 -0.000000 10.144272
RightHand -10.237934 0.000000 -13.322543
RightHandThumb1 -24.326973 -0.000000 -32.862282
LeftUpLeg -121.821895 28.702251 -9.064483
LeftLeg 149.170731 -0.000000 -0.000000
LeftFoot -47.639822 19.337247 -11.663600
LeftToeBase 24.864521 -0.000000 -0.000000
RightUpLeg -119.087248 -20.263133 6.930223
RightLeg 146.100666 -0.000000 -0.000000
RightFoot -46.941898 -24.031324 14.903452
RightToeBase 24.793079 -0.000000 -0.000000
348
root 19.051891 8.624613 -13.515221 -181.029759 3.567748 -178.568664
Spine 79.826751 3.421195 1.371234
Head -11.998557 -0.258183 2.243996
LeftShoulder 23.694553 -63.956776 22.515146
LeftArm 51.960405 9.274596 -11.037894
LeftForeArm 0.403168 0.000000 -0.771362
LeftHand -5.788242 -0.000000 17.543416
LeftHandThumb1 -26.253704 0.000000 33.147579
RightShoulder 10.912464 28.103022 -36.296041
RightArm 51.285491 34.559673 18.896175
RightForeArm -25.506137 -0.000000 10.139535
RightHand -10.239092 0.000000 -13.289087
RightHandThumb1 -24.326973 -0.000000 -32.862282
LeftUpLeg -121.702075 28.660245 -8.992109
LeftLeg 149.206012 -0.000000 -0.000000
LeftFoot -47.654674 19.337753 -11.730746
LeftToeBase 24.898483 -0.000000 -0.000000
RightUpLeg -118.974390 -20.298059 6.859929
RightLeg 146.129164 -0.000000 -0.000000
RightFoot -46.952366 -23.996103 14.975483
RightToeBase 24.798857 -0.000000 -0.000000
349
root 19.047471 8.596058 -13.521284 -181.019657 3.581578 -178.548739
Spine 79.733759 3.416654 1.367048
Head -11.919617 -0.231730 2.171573
LeftShoulder 23.688469 -63.913826 22.473570
LeftArm 51.973376 9.353961 -11.051701
LeftForeArm 0.431848 -0.000000 -0.790341
LeftHand -5.621996 -0.000000 17.502784
LeftHandThumb1 -26.253704 0.000000 33.147579
RightShoulder 10.955105 28.088056 -36.270090
RightArm 51.374185 34.521058 18.982951
RightForeArm -25.535333 -0.000000 10.108957
RightHand -10.197128 0.000000 -13.240104
RightHandThumb1 -24.326973 -0.000000 -32.862282
LeftUpLeg -121.801857 28.603173 -8.991165
LeftLeg 149.277060 -0.000000 -0.000000
LeftFoot -47.720180 19.506441 -11.723198
LeftToeBase 24.884366 -0.000000 -0.000000
RightUpLeg -119.062915 -20.261447 6.821876
RightLeg 146.193445 -0.000000 -0.000000
RightFoot -46.932653 -24.062703 14.907254
RightToeBase 24.908303 -0.000000 -0.000000
350
root 19.042671 8.577789 -13.530326 -181.056915 3.591138 -178.529572
Spine 79.740344 3.419299 1.389330
Head -11.920118 -0.248829 2.132762
LeftShoulder 23.651217 -63.871211 22.471824
LeftArm 52.022261 9.347782 -11.076416
LeftForeArm 0.316020 -0.000000 -0.799043
LeftHand -5.637974 -0.000000 17.377925
LeftHandThumb1 -26.253704 0.000000 33.147579
RightShoulder 10.958326 28.090004 -36.262879
RightArm 51.395324 34.471127 19.007980
RightForeArm -25.530016 -0.000000 10.111426
RightHand -10.200792 -0.000000 -13.299214
RightHandThumb1 -24.326973 -0.000000 -32.862282
LeftUpLeg -121.814485 28.604395 -8.912355
LeftLeg 149.358680 -0.000000 -0.000000
LeftFoot -47.724137 19.490544 -11.668221
LeftToeBase 25.038983 -0.000000 -0.000000
RightUpLeg -119.068853 -20.249929 6.778384
RightLeg 146.242908 -0.000000 -0.000000
RightFoot -46.930875 -24.082728 14.891482
RightToeBase 24.875823 -0.000000 -0.000000
351
root 19.038030 8.559185 -13.539860 -181.095418 3.580739 -178.519572
Spine 79.739446 3.413953 1.414859
Head -11.908398 -0.248819 2.125028
LeftShoulder 23.810123 -64.029529 22.347699
LeftArm 51.898364 9.254275 -11.608730
LeftForeArm 0.964293 0.000000 -0.888389
LeftHand -5.643112 0.000000 17.352096
LeftHandThumb1 -26.253704 0.000000 33.147579
RightShoulder 10.970618 28.073511 -36.216332
RightArm 51.391416 34.404371 18.956345
RightForeArm -25.550929 0.000000 10.113393
RightHand -10.211388 -0.000000 -13.300487
RightHandThumb1 -24.326973 -0.000000 -32.862282
LeftUpLeg -121.838330 28.570365 -8.876576
LeftLeg 149.435136 -0.000000 -0.000000
LeftFoot -47.704692 19.515708 -11.663144
LeftToeBase 25.039755 -0.000000 -0.000000
RightUpLeg -119.089230 -20.264073 6.724778
RightLeg 146.305596 -0.000000 -0.000000
RightFoot -46.895455 -24.082081 14.879935
RightToeBase 24.897639 -0.000000 -0.000000
352
root 19.034857 8.543353 -13.547754 -181.161012 3.586513 -178.522191
Spine 79.781856 3.428166 1.420942
Head -11.917265 -0.255616 2.101037
LeftShoulder 23.850648 -64.018729 22.320932
LeftArm 51.892762 9.465801 -11.379465
LeftForeArm 0.664408 -0.000000 -0.803328
LeftHand -5.697439 -0.000000 17.335688
LeftHandThumb1 -26.253704 0.000000 33.147579
RightShoulder 10.976702 27.989873 -36.208387
RightArm 51.231436 34.299634 18.681150
RightForeArm -25.400417 -0.000000 10.179570
RightHand -10.232877 0.000000 -13.175448
RightHandThumb1 -24.326973 -0.000000 -32.862282
LeftUpLeg -121.851320 28.525812 -8.890709
LeftLeg 149.487232 -0.000000 -0.000000
LeftFoot -47.726208 19.605182 -11.806750
LeftToeBase 24.895200 -0.000000 -0.000000
RightUpLeg -119.071829 -20.262455 6.670011
RightLeg 146.355413 -0.000000 -0.000000
RightFoot -46.898802 -24.090848 14.888751
RightToeBase 24.850624 -0.000000 -0.000000
